/* XPM */
static char *adc5efa5fccd44eb820b361fb40dfc030JRXrAaknEev9A6E[] = {
/* columns rows colors chars-per-pixel */
"50 50 90 1 ",
"  c #D38F00",
". c #D49000",
"X c #D89506",
"o c #DA9709",
"O c #DC9A0D",
"+ c #DE9E11",
"@ c #E1A115",
"# c #E4A51A",
"$ c #E7A81D",
"% c #EAAD23",
"& c #EDB127",
"* c #EEB229",
"= c #F1B62D",
"- c #F2B82F",
"; c #F5BC34",
": c #F8BF38",
"> c #FAC23C",
", c #FEC741",
"< c #FFC843",
"1 c #FFCA4A",
"2 c #FECC53",
"3 c #FDCE5B",
"4 c #FCCF61",
"5 c #FED164",
"6 c #FCD26D",
"7 c #FCD573",
"8 c #FBD57A",
"9 c #FED87C",
"0 c #F9D783",
"q c #FCD984",
"w c #F8D789",
"e c #F9D98C",
"r c #FBDD94",
"t c #F7DD9E",
"y c #F9DE9C",
"u c #FDE09C",
"i c #F7DEA4",
"p c #F9DFA0",
"a c #FAE1A4",
"s c #FBE4AC",
"d c #F7E4B6",
"f c #FAE5B4",
"g c #F5E5BE",
"h c #F8E6B8",
"j c #FBE9BB",
"k c #FAE8BC",
"l c #F6E7C4",
"z c #FAEAC2",
"x c #FBEBC5",
"c c #FBEECF",
"v c #F4EBD5",
"b c #F9EFD7",
"n c #F2EBDB",
"m c #F5EDDA",
"M c #F6EEDB",
"N c #F6EFDD",
"B c #FCF2DA",
"V c #F6F0E1",
"C c #F5F0E5",
"Z c #F6F1E5",
"A c #F9F2E3",
"S c #FCF4E0",
"D c #F9F4E7",
"F c #F7F3EA",
"G c #F3F1EC",
"H c #F5F2EC",
"J c #F5F2EE",
"K c #F7F4EE",
"L c #F9F4E9",
"P c #FAF6ED",
"I c gray94",
"U c #F3F3F1",
"Y c #F0F1F2",
"T c #F3F3F3",
"R c #F5F4F0",
"E c #F5F5F3",
"W c #F7F6F2",
"Q c #F3F3F4",
"! c #F3F3F5",
"~ c #F3F4F6",
"^ c #F4F5F6",
"/ c gray97",
"( c #F8F8F7",
") c #F6F7F8",
"_ c #F7F7F8",
"` c #F7F8F9",
"' c #F8F9F9",
"] c gray98",
"[ c #FBFBFB",
"{ c #FAFBFD",
/* pixels */
"////////I[/I__//!/nxtq7533560akAW``Q)//T////T//T//",
"I/I//I[I//I[I[)Cj051<,><<<,,><13qdV`Y//!/I]I//T/I/",
"[I[/I[I[Q)[G[na4<><<<<<<<<<<<<<<><4tB)))I[I[T//T[)",
"I[I/[I[I///Pa3,,<<<<<<<<<<<<<<<<<<<,3aC)[I[I//T/G)",
"[I//I/I[/Qb7<,<<<<<<<,>::::>><<<<<<<,<6l//I[/Q/T[I",
"I//I////Ws2><<,<<<:*#+oX..Xo+#&>,<<<<<,2iW`Q///_/)",
"/////Q/Gy1,<<<<,;#X.   ....  ..X#-,,<<<,<rJ//)I_I_",
"[I//I[Gr<<<<<<;@.. .. .......... .+;,<<<<<wJI/[I]!",
"I[Q/]Fy<<<<<>%X ... .............  X$><,<<<r)QU[I)",
"[I//Tf1,<<,>@  . ............ .......+><<<<<aQ`I]W",
"I[I[b2,,<<:+ .. ...... .*:#... .......O;<<<<2lQ[I/",
")I/F7,<<<:+ .........  #<<>o  .. ......+><<<>6CW//",
"//)a<<<<,@ ........ X@%;<<,*@O. ........+><<<<u)//",
"I)N3,<<<%  .....  .$:,<<<<<<<>=@. .......$<<<<3BI/",
"[Qy<<<<;. .. ....X*<<<<<<<<<<<<,&X.......X;<<<>u[I",
"IL4<<<,@ ...... .%<<<<<<<<<<<<<<,+........+><<>4N)",
"{h<<<<;..... .. O><<,<>;,<<,<<,<<@ ..  ....=<<<<fQ",
"Iq,<<<@ .. .... %<<<,;X@<<>+%;<,=X........ @>,<<9W",
"C3<<<:X . ......*<<<<$ @,<:X X@@X..... .. .X>,<<3N",
"x1<<<*..... .. .*<<<,% +,<:X.   .. ........ &<,<1h",
"p<<<<$ .. ..... %<<<<>@#<<>X......... ..... @<<<<u",
"q<<<>+ ...... . @<<<,<,><<>X   ... ........ +><<>8",
"6,<<>o ....... .X;<<<<<<<<,*$X. . .....  ...X>><<5",
"5,<<:X. ... .....O><<<<<<<<<<>%o ... ...... X>,,<3",
"3,<<:X. ... ..... O-,<<<<<<<<<<:@.......... .-<<>2",
"3<<<:... ...... .  .@*>1<<<<<<<<>+ ....  ....><<<2",
"5<<<:X.............. .o%,<<<<<<<<-..........X><<<2",
"6><<>o ... . ... .. .. +,<:&:<<<<>+ . ....  .><<<5",
"q,<<>O ... .. ..    .. @<<:X+:<<<<# ....... O><<<7",
"y<<<<$ .........O$$X . @,<:X *1<<<# .. .. . @,<<<u",
"z1<<<*.. ..... o;<,:#. +<<>X.*<<<<# ....... &,<<<h",
"A3,,<:X.... .. @<<<<,;%%<<>+&,<<<>O . . .. X><<<2N",
"I0,<<<@......  +,<<<<<<,<<,><<<<<=........ @,<<,8W",
"{h<<<<;........X&,<<<<<<<<<<<<<<>O ... . ..*<<<<fQ",
"ID5><<>+.........@;,<<<,<<<<<<,;O  .. . ..+,<<,3v`",
"[Wy<<<<;X...... . .+*:,,<<<<>-$X .........-<<<>r[I",
"Q`m3><<<%........ . .XO&<<,$oX ... ..... $,<<<2b//",
"Q//a<<<<>+ . ......... $<<>O  ........  +><<<<y/I/",
"[I[D6><<<:+  . ....... #<<>o  . . .. . O>,<<<5A/[/",
"I/Q/c2<<<<;O ... ... . X*:%   ....... O;,,<<1gQ`I[",
"{I/[Ws<<<<<:+ ...........X ..........O><<<<<uQ`U[I",
"W/QI/Gu<,<<<>%. .... ...............$><<<,<wWQU[I[",
")I//W/Ge<<<<<,;+.......  ....... .+;<<<<<<0JQW`Q/I",
"/[/Q//`Kr1,<<<<,*@X.  ..........@*><<<<<<eG/``Q`//",
"I//I///IWa2<<<<,<,:&@OXX...oO@&>,<<<<<<1uJ`Q))U`//",
"[Q/[I[I[))x6<<<<<<,<<>>:;;;>><<<,<<<<<5lQ[I)UQ`U[I",
"I[I[[I[I//QLt3,,<<<<<<<<<<<<<<<<<<<<2yV/`Y[I//I[I/",
"[I//I[T]TT`Q`vr3<,,<<<<<<<<<<<<<,,2rBY/[I`W)I///[I",
"I//T/T/T//T/T/QNf831<,<<,<<<><<39sN/Q/I[/I[I[/I[I[",
"I/T_////T///T///)Wmkr85222357udNQQ/)Q/`I`U//[II///"
};
