/* XPM */
static char *_be18ab10c254e2bc2d253a390b1e606AVkTIZ2Gh9XFKXEq[] = {
/* columns rows colors chars-per-pixel */
"50 50 241 2 ",
"   c None",
".  c #7A1D08",
"X  c #7C2C0D",
"o  c #76250B",
"O  c #7B2812",
"+  c #782B10",
"@  c #852D0C",
"#  c #922D0E",
"$  c #9E2C0C",
"%  c #95250F",
"&  c #87310F",
"*  c #9C330D",
"=  c #97340D",
"-  c #862C13",
";  c #992D11",
":  c #883210",
">  c #9B3411",
",  c #993914",
"<  c #A52E0E",
"1  c #A4350F",
"2  c #B43A0F",
"3  c #A33312",
"4  c #AC3413",
"5  c #A53A14",
"6  c #AB3A14",
"7  c #A83B1C",
"8  c #B33515",
"9  c #B43C13",
"0  c #BB3D14",
"q  c #B53C1A",
"w  c #BC3D1C",
"e  c #BA3618",
"r  c #A22E11",
"t  c #BB3C29",
"y  c #C33312",
"u  c #CB3915",
"i  c #C33A1A",
"p  c #C83818",
"a  c #D33414",
"s  c #DA3312",
"d  c #D43D1A",
"f  c #DA3A16",
"g  c #EA3D15",
"h  c #E53E1B",
"j  c #E93A16",
"k  c #F23D1A",
"l  c #C73E22",
"z  c #D13B23",
"x  c #9E470D",
"c  c #B44216",
"v  c #BD441A",
"b  c #B7481E",
"n  c #A84217",
"m  c #BC4220",
"M  c #B54725",
"N  c #BB5623",
"B  c #C4431B",
"V  c #CC431B",
"C  c #CB4B1D",
"Z  c #C64618",
"A  c #D44E1B",
"S  c #DC4D1C",
"D  c #D74619",
"F  c #C9541A",
"G  c #D9551B",
"H  c #E7461B",
"J  c #F64618",
"K  c #E4531D",
"L  c #E7561C",
"P  c #F5561B",
"I  c #DC6319",
"U  c #FC681D",
"Y  c #FA7A1E",
"T  c #C44422",
"R  c #CC4322",
"E  c #C64C21",
"W  c #CC4B20",
"Q  c #CA4B2B",
"!  c #D34A23",
"~  c #DB4D24",
"^  c #D64524",
"/  c #C35523",
"(  c #C55924",
")  c #CC5825",
"_  c #D55222",
"`  c #DC5422",
"'  c #D25A25",
"]  c #DC5C24",
"[  c #DA552A",
"{  c #DA4A35",
"}  c #D95936",
"|  c #C04D33",
" . c #E64824",
".. c #F44622",
"X. c #E35422",
"o. c #E55B23",
"O. c #EB5A24",
"+. c #E85728",
"@. c #FB5D22",
"#. c #F75924",
"$. c #E45533",
"%. c #E75D30",
"&. c #EC4A31",
"*. c #DA6227",
"=. c #D56B28",
"-. c #E5642B",
";. c #ED642B",
":. c #ED6C2D",
">. c #E66727",
",. c #FB6422",
"<. c #FD6B24",
"1. c #F46B2D",
"2. c #FA6B2C",
"3. c #F26328",
"4. c #EA7729",
"5. c #FC7325",
"6. c #F5742B",
"7. c #FB7329",
"8. c #FA7A2A",
"9. c #ED6732",
"0. c #F66C32",
"q. c #E27433",
"w. c #EC7735",
"e. c #F37334",
"r. c #F97335",
"t. c #F17C33",
"y. c #F77A38",
"u. c #BE665D",
"i. c #C35140",
"p. c #F97945",
"a. c #F36E57",
"s. c #DF7362",
"d. c #D66758",
"f. c #FC822B",
"g. c #FC8C2D",
"h. c #FC9828",
"j. c #FB8333",
"k. c #FB8A33",
"l. c #F9883A",
"z. c #FC9334",
"x. c #FA9B36",
"c. c #FC9C3C",
"v. c #F99239",
"b. c #EE8E2F",
"n. c #FBA43B",
"m. c #FCAB3C",
"M. c #FBA436",
"N. c #FCB43A",
"B. c #FCD13E",
"V. c #EB8C47",
"C. c #FB8343",
"Z. c #F98947",
"A. c #EA9144",
"S. c #FB9445",
"D. c #FB9B45",
"F. c #FB9C4C",
"G. c #F59549",
"H. c #EB8A58",
"J. c #F98853",
"K. c #EA9456",
"L. c #ED9B56",
"P. c #F99956",
"I. c #FAAB45",
"U. c #F9AC4D",
"Y. c #F9A349",
"T. c #FCBD4D",
"R. c #FCBA44",
"E. c #ECA258",
"W. c #FAA756",
"Q. c #FAB55B",
"!. c #FBBA5D",
"~. c #F9B655",
"^. c #F69A63",
"/. c #E78E65",
"(. c #EDAA69",
"). c #FCA465",
"_. c #FBAB65",
"`. c #F8AB69",
"'. c #FBB364",
"]. c #FAB963",
"[. c #F9B96A",
"{. c #EBB776",
"}. c #F7BB75",
"|. c #FBC444",
" X c #FCCA48",
".X c #FCDA4D",
"XX c #FCC454",
"oX c #FAC957",
"OX c #FAD454",
"+X c #FCDB52",
"@X c #FBD85D",
"#X c #FBE453",
"$X c #FCEB5B",
"%X c #FDE459",
"&X c #FBE048",
"*X c #FBC363",
"=X c #F9CB6C",
"-X c #F6C868",
";X c #FCD463",
":X c #FCDB63",
">X c #FCDE6B",
",X c #FCD46B",
"<X c #FBC372",
"1X c #F8C777",
"2X c #FCDB73",
"3X c #FAD779",
"4X c #FCE564",
"5X c #FDEB62",
"6X c #FDE36D",
"7X c #FDED6C",
"8X c #FDF266",
"9X c #FCE472",
"0X c #FCEB73",
"qX c #FDEC79",
"wX c #FDF37A",
"eX c #FDF274",
"rX c #EA7B87",
"tX c #EABB86",
"yX c #EE9691",
"uX c #F8DC8A",
"iX c #F5D692",
"pX c #F7C782",
"aX c #FCEC8B",
"sX c #FAE587",
"dX c #FDF582",
"fX c #FDF28D",
"gX c #FDFB8A",
"hX c #FBE794",
"jX c #FDF592",
"kX c #FDFB93",
"lX c #FDFB9B",
"zX c #FDF69A",
"xX c #FDFDAA",
"cX c #FEFBA3",
"vX c #F9E7B7",
"bX c #FCFCB4",
"nX c #FCF7B9",
"mX c #FBEBA6",
"MX c #F2DCAA",
"NX c #FEFDC5",
"BX c #FAF6D5",
/* pixels */
"                                                                      (.H.                          ",
"                                                                    [.-XV.                          ",
"                                                                {.pX2X~.W.                          ",
"                                                            K.}.uX2X*XF.U.                          ",
"                                ^.1X(.                    (.=X2X9X2XQ.F.W.                          ",
"                              H.).<X3X3X}./.          /.(.3X2X9X9X-XL.F.*X                          ",
"                              ^._.(.`.}.1XpXiXiXuXiXhXiXtXtX{.-X=X].G.S.Q.L.                        ",
"                            H.^.^.`.sXaXaXjXzXjXkXlXkXcXvXBXNXMX1XG.Z.Z.D.K.                        ",
"                            H.^.`._.1XaXfXjXjXjXjXkXkXlXlXbXxXbXhX*XU.G.Y.L.                        ",
"                          H.`.'._._.<XaXfXjXjXjXjXlXxXbXkXgXgXaX3X'.XXXXW.K.                        ",
"                        E._._.)._._.<XsXjXaXjXjXlXNXNXnXlXkXgX2X>X*X!.'.oXW.                        ",
"                      L._.).).).).`.[.3XaXfXjXjXxXbXxXNXbXkXfX=X1X'.U.Q.W.I.Y.                      ",
"                K.E.P.P.J.^._._.`.<X[.<XuXaXuXuXuXvXmXvXNXcX2X,X*XQ.W.U.Y.p.V.v.                    ",
"        9.-.w.G.G.V.).P.J.J.`.).[.<X<X1X1XsXhXfXjXdXfXaXaX3X].!.!.~.!.Q.D.0.a.t.                    ",
"/ ( ' w.t.w.D.D.V.A.P.P.P.).).P._.}.1XsXgXdXfXdXqXdXwX0X0X4X,XQ.].Q.Q.S.r.r.6.4.b.8.                ",
"N ( F q.Z.t.v.A.A.G.W.*X_._.[.].].=X,XqXqXwX9X7X0XdXqX7X0X:X-X=X'.W.S.S.n.j.1.o.X.1.<.1.3.          ",
"  ( N ( w.*.-.A.I.C.F.].F.J.P.L.-X>X9X2XqXeX0X0X0X:X;X>X7X:XoX:XoXI.U.S.8.8.1.%.L 6.8.j.,.@.        ",
"    N ) ' ' -.G.S.r.l.p.C.J.p.E.6X6XeX0X6X>XeX0X>X;X;X4X%X7X4X:XOX.XI.r.0.2.2.3.O.o.6.3.O.X.O.      ",
"      / N F ' A.t.9.e.p.C.Z.V.!.:X:X7X0X0XqX8X>X9X:X;X:XwX7X@XoXXXR.N.8.2.2.2.L A Z F P O. .        ",
"      ' b / *.q.-.;.0.r.r.e.Y.XXXXoX@X6XwX6X;X:X9X:X4X7X+X#XoXoXQ.R.N.Z.9.K A V F C Z P P o.        ",
"        ) ( ' [ 9.;.>.1.0.w.U.T.~.XXOX:X8X:X;XXX@X%X$X%X X.XOX~.~.U.c.t.S G S S A C C #.H           ",
"          N ] ] o.3.2.3.0.l.I.I.T.T.XX:XwXdX3X@X$X5X$X4XR. XR.m.I.G.D.j.K  .+.^ _ Z C O.O.          ",
"            *.] ;.1.1.;.;.t.I.n.R.T.OX4X8X8XjX@X$X5X+X7X+X|.x.h.n.v.n.n.o.X.o.` C v v `             ",
"            I *.:.t.e.1.o.j.x.m.R.XXOX$X$X$X$X$X$X$X.X4X#XR.b.k.f.z.x.g.:.A G :.X.C c F             ",
"            ' *.-.*.-.o.` 4.z.Y.m.|.|.+X#X8X$X#X&X#X X&X|.m.g.j.k.n.j.7.A c B C v c n Z             ",
"            q.*.-.-.o.` ` 4.k.v.c.m.|.|.|..X$X#X.XB. X|.M.c.Y.g.h.<.@.#.i Z 0 9 = , , >             ",
"            w.e.e.] X.o.o.o.f.c.D.c.n.M.N.R.OX@X XB..XU.W.k.v.g.f.,.U L 2 2 2 6 5 , , =             ",
"            ;.%.] 6.;.;.%.O.k.v.8.j.x.g.m.N.!.<X XB.N.z.Z.8.S.P.,.<.0.A 2 c 9 9 6 , = 6 X           ",
"          E ` A ' 6.e.;.O.O.4.c.c.Z.S.k.z.n.N.n.M.M.k.k.j.5.l.J.,.,.#.B q 0 0 9 6 , 1 1 + X         ",
"          W *.-.! C _ %.` K _ b.x.y.v.f.5.f.g.g.z.g.f.5.5.5.0.r.#.U D c B 0 B 0 6 c 0 * o & ,       ",
"        $.W *.q.E M T ! ) %.C o.<.<.<.5.5.7.U g.f.7.7.,.@.U p.a.#.H 6 6 4 > # e 9 1 c @ X & :       ",
"        X.! ! ` T E { ~ W ! $.~ o.<.7.<.U 5.U h.7.<.,.<.7.5.P J H 8 6 w 3 * # # @ # 2 o & : : :     ",
"      W $.[ ^ ..X.| yXi.W V X.;.A L U U <.,.U Y 5.6.8.U P J J s 0 2 u w 3 3 ; 3 # 3 % . @ & & - X   ",
"        [ %. .H ..Q s.Q B B ^ ~ S D S 3.@.<.5.U 6.P P J J j u 2 D u i i 4 4 3 ; $ r o . O - & & X   ",
"             . . .$.[ } Q ! T ^ H S S S A G K P J J J H f l 8 a u d 8 8 q r # > e . O - + X X + X X ",
"                  9.%.a.} B w {  .f D ^  .j g g s f s s a { z p u p 8 8 4 M 7 7 ; o O - X o X o + + ",
"                    q.[ C v W ^ R d D d k k k ..g g j j j j a y p l e 8 3 u.| 7 o o X & X           ",
"                      4.E C ^ R z &.z u k k ..&.j j j s s s y e e 8 4 < * 8 D                       ",
"                        [ W l R D +. .y h ....a.k J f a a a z d.p < r < w S                         ",
"                        ^ T E ^ ^ S  .h h ..H ..h k z z y a  .rXt r 4 0 4                           ",
"                        ! R E F *.A D H D a J h d h y e y y y u u 0 < %                             ",
"                          m R i F =.b.G D B Z p p a e i d u u *.F > $ ;                             ",
"                          q v w w q B v i C F I >.G A C F c 6 6 = * $                               ",
"                          M T R R w e e 1 8 4           = * * x 5 * $                               ",
"                          M q m m w l R q                   x x x * *                               ",
"                          7 M 7 m T w T                         x *                                 ",
"                          7 q V m 7                                                                 ",
"                          , q B 5                                                                   ",
"                          7 q 5                                                                     ",
"                                                                                                    "
};
