/* XPM */
static char *_13c655d29f4440dd3c074537b462d11Hu2iwYNy4HOIaVM2[] = {
/* columns rows colors chars-per-pixel */
"50 50 120 2 ",
"   c None",
".  c #6C472A",
"X  c #754D2D",
"o  c #784F2E",
"O  c #79502F",
"+  c #764F30",
"@  c #775133",
"#  c #7B5433",
"$  c #7F5934",
"%  c #7B5639",
"&  c #7C593E",
"*  c #444444",
"=  c #4C4C4C",
"-  c #525252",
";  c #5D5D5D",
":  c #7E5D44",
">  c gray39",
",  c #6B6B6B",
"<  c #757575",
"1  c gray49",
"2  c #805733",
"3  c #835B35",
"4  c #885F37",
"5  c #825E3C",
"6  c #895F38",
"7  c #85603C",
"8  c #8C6239",
"9  c #866446",
"0  c #8E6944",
"q  c #82634D",
"w  c #836753",
"e  c #846854",
"r  c #856C59",
"t  c #967354",
"y  c #98775A",
"u  c #9E7E61",
"i  c #917C6D",
"p  c #8B7D73",
"a  c #8D8179",
"s  c #968376",
"d  c #928378",
"f  c #A1866F",
"g  c #848484",
"h  c #8D8D8D",
"j  c #908781",
"k  c #918A85",
"l  c #928C88",
"z  c #97928D",
"x  c #949494",
"c  c #999999",
"v  c #A2968D",
"b  c #AF9D8F",
"n  c #A3A3A3",
"m  c #ADA6A1",
"M  c #ACACAC",
"N  c #B1AEAD",
"B  c #B4B4B4",
"V  c #B9B7B6",
"C  c #B9B8B6",
"Z  c #B8B8B8",
"A  c #BBBAB9",
"S  c gray73",
"D  c #BBBBBB",
"F  c #BCBBBB",
"G  c #BCBCBB",
"H  c #BCBCBC",
"J  c #BDBCBC",
"K  c gray74",
"L  c gray",
"P  c #BFBEBE",
"I  c gray75",
"U  c #BAB9B9",
"Y  c #C6BFBA",
"T  c #C0BFBE",
"R  c #C0BFBF",
"E  c #C0C0C0",
"W  c #C1C0C0",
"Q  c #C1C1C1",
"!  c #C2C1C1",
"~  c gray76",
"^  c #C3C2C2",
"/  c #C3C3C3",
"(  c #C4C3C3",
")  c gray77",
"_  c #C5C4C4",
"`  c #C5C5C5",
"'  c #C6C5C5",
"]  c #C6C6C6",
"[  c #C7C6C6",
"{  c gray78",
"}  c #C8C8C8",
"|  c #C9C8C8",
" . c gray79",
".. c #CAC9C9",
"X. c #CACACA",
"o. c #CBCBCB",
"O. c #CCCBCB",
"+. c gray80",
"@. c #CDCDCD",
"#. c #CFCDCC",
"$. c #CECECE",
"%. c gray81",
"&. c gray82",
"*. c #D2D2D2",
"=. c gray83",
"-. c #DBD7D4",
";. c #D9D9D8",
":. c gray86",
">. c gainsboro",
",. c #DDDCDC",
"<. c #DEDDDC",
"1. c gray88",
"2. c #E6E6E6",
"3. c gray91",
"4. c #E9E9E9",
"5. c gray92",
"6. c #F3F3F3",
"7. c #FBFBFB",
"8. c gray99",
"9. c #FDFDFD",
/* pixels */
"                                o.+.+.+.+.+.+.+.+.+.+.+.+.+.+.+.+.                                  ",
"                          +.P +.+.+.+.! +.+.+.+.o.+.+.P +.+.+.+.+.+.W  .                            ",
"                        +.+.J +.W  .+.I _ o._ +. .P  .o.+.+.I P +.+.! +.+.+.                        ",
"                    +.+.+.+.! o.W +.+.+.! M M J P G M G P  .+.+.+.+.o.+.+.+.+.                      ",
"                  +.+.+.+.+.+.+.o.} B H H M Z J H D n B H H H P +. ._ / P J +.+.                    ",
"                +.+./  .+.+.+.+.G J n Z B i # X X X + r N G P n H I +.+.+.+.+.} +.                  ",
"                +.o.+.+.+.+./ n H P s X X @ x 8 8 4 8 c X X & G H H n  .+.+.+.+.+.+.                ",
"              +.+. .+.+.+.G c J m X X Y X 8 8 8 8 8 8 4 4 r & X : G Z n G +.+.} +.+.+.              ",
"            +.+.+._ +.+.J n Z q X R 8 8 o 8 8 8 8 8 8 8 4 2 8 8 M X C J M T +.+.! +.+.              ",
"             .+.+. .+.( n J @ X X 8 8 8 X 8 O 8 8 8 8 X 3 $ 8 8 2 o X B J M +.+.+. .+.!             ",
"            ! +.+.+.+.M J : a 0 3 8 8 8 X 8 O 8 8 8 8 X 4 2 8 8 2 8 -.X C J n +.+.+.+.!             ",
"          +.P +.+. .P Z v X 4 8 8 8 4 8 o 8 8 8 8 3 4 8 4 2 8 8 2 8 8 o X J Z _ +.+.+./             ",
"          +.R +.+.+.Z P p % 8 8 8 8 8 8 X 8 8 8 8 8 8 8 4 $ 4 8 2 8 8 O z w Z M +.+.+./             ",
"          +.R  ./ M B w X # 8 8 8 8 8 8 X 8 8 6 3 4 8 4 4 $ 4 8 8 8 8 O 8 X H K  .+.+._ +.          ",
"          +.R +.+.Z M X 4 # 8 8 8 8 8 8 X 8 8 8 3 8 8 $ $ 2 8 8 8 8 8 O 8 X r K M  .+. . .          ",
"          +.! +. .P m c 8 O 8 8 8 8 8 8 X 8 8 8 8 4 8 8 4 2 4 8 8 8 8 3 8 s : H P  . . .o.          ",
"          +./ +.{ M % O O O 8 8 8 8 8 8 X 8 8 8 8 8 8 8 4 2 8 8 8 8 3 3 8 8 X F F +.( O. .          ",
"          +._ W E B X 8 O O 8 7 8 8 8 8 X 8 8 8 8 8 8 8 4 $ 8 8 8 4 8 4 8 4 # z J +.!  .o.          ",
"          +._  .I H e b O $ 8 8 8 8 8 8 X 8 8 8 8 8 8 8 4 $ 8 8 8 8 8 8 8 4 Z w P +.+.+. .          ",
"          +.} ! E H X 8 8 O 8 8 8 8 8 8 X 8 8 3 3 8 8 8 4 3 8 8 8 8 8 8 8 8 4 % Z +.+.+.o.          ",
"          +.o.P E G = = = = = = = = = = = = = = $ 4 = = = = = = = = = = = = = * P +.+.+.o.          ",
"          +.o.! E G = = z = = = > 1 = - = x = = $ 9 = , < = = = x = = = > < = * H +.+.+. .          ",
"          +.+.{ E H = n 2.=.= = +.9.= = x 1.:.= 3 : = 9.+.= = B 6.E = = 8.+.= * H +.} +.o.          ",
"          +.+.o.E H * - } , - = N _ = = =  .< = $ 7 = D ! = = - +.; = = Z / = * N +.} +. .          ",
"          +.+.o.T K * * = * = * = = * = * = = * 3 7 = * = * = = = * = = = * * * P +. .+.o.          ",
"          +.+. .L K X 8 8 $ 8 8 8 8 8 8 O 8 8 8 $ 8 8 8 8 $ 8 8 8 8 8 8 8 8 8 % D o.} +. .          ",
"          +.+.+.L K k t 8 $ 8 8 8 8 8 8 X 8 8 8 3 8 8 8 8 O 8 8 8 8 8 8 8 8 :.@ D +.! +.o.          ",
"          +.+.+.K K # 8 8 7 8 8 8 8 8 8 X 8 8 8 # 7 8 8 3 $ 8 8 8 8 8 8 8 8 8 % H +.+.+. .          ",
"          +.+.+.T K l y 8 3 8 o 8 8 8 8 X 8 8 8 3 8 8 8 3 3 8 8 8 8 8 8 8 8 :.% H +.+.+. .          ",
"          +. .+.T C 8 8 3 8 8 8 8 8 8 8 X 8 8 8 3 8 8 8 8 O 8 8 3 8 6 8 8 8 8 % H o.+.+.o.          ",
"          +.+. .Q G 3 4 O 8 8 8 8 8 8 3 X 8 3 8 3 8 8 8 8 2 8 8 8 8 X 8 8 8 8 @ n  .} o. .          ",
"          +.+.+.T T d f 8 8 8 3 8 8 8 8 X 8 8 7 $ 8 8 8 3 2 8 8 8 8 8 8 8 8 <.% n +.+.+.o.          ",
"          +.+.+.! G # 8 8 8 8 8 8 8 8 8 X 8 8 8 3 8 8 8 3 2 8 8 8 8 8 8 8 8 8 % M o.+.+. .          ",
"          +.+.+.E H j t 8 8 8 8 8 8 8 8 X 3 8 8 3 8 8 8 $ $ 8 3 8 8 8 8 8 8 +.% G o.+.+.o.          ",
"          +.+.+.E P X 8 8 8 8 8 4 8 8 # X 8 8 8 $ 8 8 8 7 $ 8 $ 8 3 8 8 # 8 8 @ G +.+.+. .          ",
"          +.+.+.E Z = = = = = = = = = = = = = = 3 5 = = = - = = = = = = = = = = G _ +.+.o.          ",
"          +.+.+.I G = = &.; = = c ! = = = +.> = $ 9 = B M = = - &.- = = M B = = P +.+.+. .          ",
"          +.+. .W B = n =.+.= = O.5.= = x &.=.= $ & = 3.@.= = C <./ = = 3.o.= * G +.o. .o.          ",
"          +.+. .I J * = M - = - 1 c = = = M - = 3 & = h h = = = M - = = 1 x = = G +.o.o. .          ",
"          +.+.+.I Z * * * * * * * * * * * * * * $ 8 * * * * * * * * * * * * * = H +.+.+.o.          ",
"          +.+.Z n B 8 8 8 8 8 8 6 8 8 8 X 8 8 3 X $ 3 8 4 2 8 8 8 8 8 8 8 8 8 % H +. .+. .          ",
"          +.+.+.I P d 0 8 2 4 8 8 8 8 8 X 8 8 8 2 8 8 8 4 $ 8 8 8 8 8 8 8 8 z % H +.+.+.+.          ",
"          +.+.+.E B + 8 8 8 8 8 8 8 8 8 X 8 8 8 $ 8 8 8 4 $ 8 @ X 8 8 8 8 8 8 % Z +. .+. .          ",
"          +.+.+.E G j 9 8 8 8 4 8 8 8 8 X 8 8 8 3 8 8 8 3 $ 8 8 8 8 8 5 8 8 c @ M  . .+. .          ",
"          $.+.+.E D X X + + X X X X X X X X X X . X X X + X X X X X X X X X X % B +. . .+.          ",
"c x c c c c c M n c c c x 1 g g g g g g g 1 g 1 g g g g g g g g g g g h x c c c c c c h c c c c c c ",
"c c c c c c c M N c c c c h x c c c c c h x x x x c x c c c c c c c c h h c c h c c c x c c c c c c ",
"c c c c c c c n c x c c h c c c c c c x c c c c c c ! n c c c c c l c c c x c x n c c x c R x M c c ",
"c c x c c x c c c c x c c c c N c c c c c x c c c c c c c c c c c c c h c c c c c c c x c c c Z M c ",
"c h c c c x c c c c c c c c c c c c c c c c c c c c c c c c c c c c c c c c c c c x c c c c c c c c "
};
