/* XPM */
static char *c705fb6543b84a2a8992d221d7695e64bdvmuOaRVcay627s[] = {
/* columns rows colors chars-per-pixel */
"50 50 86 1 ",
"  c #8BAC00",
". c #92AE04",
"X c #94AF08",
"o c #8FB000",
"O c #94B303",
"+ c #98B603",
"@ c #97B805",
"# c #9ABB05",
"$ c #96B30A",
"% c #99B60C",
"& c #97B809",
"* c #9DBD0C",
"= c #9EBE12",
"- c #A0BF0C",
"; c #A1BE11",
": c #9FC00D",
"> c #9FC011",
", c #A2C30E",
"< c #A8C80F",
"1 c #A2C311",
"2 c #A3C614",
"3 c #A6C414",
"4 c #A7C515",
"5 c #A4C715",
"6 c #A6C714",
"7 c #A4C516",
"8 c #A8C711",
"9 c #A8C712",
"0 c #A8C616",
"q c #A9C717",
"w c #A5C812",
"e c #A6C913",
"r c #A7CA14",
"t c #A7CA16",
"y c #AAC913",
"u c #AAC914",
"i c #A8CB15",
"p c #A9CB15",
"a c #A9CA17",
"s c #AACD17",
"d c #ABCD17",
"f c #ADCC16",
"g c #ADCC17",
"h c #AECD17",
"j c #A6C319",
"k c #A4C31A",
"l c #A7C518",
"z c #A7C819",
"x c #A9CA19",
"c c #A8C91A",
"v c #A9CA1B",
"b c #ACCA1A",
"n c #ABCC1B",
"m c #ADCC19",
"M c #ACCF19",
"N c #B0CF1B",
"B c #B0CF1C",
"V c #AED01A",
"C c #AFD11A",
"Z c #AFD11B",
"A c #AFD01D",
"S c #B1D01A",
"D c #B0D21C",
"F c #B3D21C",
"G c #B3D31C",
"H c #B0D11E",
"J c #B4D31D",
"K c #B4D31E",
"L c #B2D41E",
"P c #B5D41E",
"I c #B2D320",
"U c #B3D421",
"Y c #B5D721",
"T c #B5D623",
"R c #B4D524",
"E c #B8D721",
"W c #B8D722",
"Q c #B6D822",
"! c #BAD924",
"~ c #BBDB25",
"^ c #B8D926",
"/ c #BCDB25",
"( c #BBDC29",
") c #BFDE28",
"_ c #BEE02A",
"` c #BFE02D",
/* pixels */
"1,1,:,:>:>:**:,11,,11,,,,,:,,,w,,,:<<:::::w:>>k>>>",
":::11::,::::1wHRHr*11,1,,1,,,www,::<<<<::<w:1>>>>2",
"**:,1,,:*::@1ARAs1,21w1711,,,,ww,,::wr<:::w11>1:>2",
":**,::,>:::*:1r,,111111,2,1,ww<w,,:-wfs:::w>>>>>>:",
"122,1:,::::2*##,21:1w232131,,www,,,,whN,::w11:>11:",
"aca>,>,>:>:*1ww,11a1a2w31w1,ww<w,,,#wFN9::w:>1>1::",
",17z7=11O@aO:waVQJw>,cMca*#fF,fF--<<#,/W::<,>>>>>1",
"11177=>c>&*1wsrwa1,19ccc2>#<J,yf--<,++9BssH:1>1>:>",
"11>>7*>zz*&UMwrw:*117zcz7*&,Hfy1-,<--++-JEY1>11>1:",
"k=>17==7>*>U<www*,c12wzk7**@fJf,-<--9<#+,bM>>>>>>>",
"7>>27::*o*RHwwr<::71r7r1==*o1WB,3---yu,#,,1>>k>1>>",
"1>1>1>>&o&`UM<w,:*1y2111>=*O#BN9j-#---,99,*>>>>>11",
">11*1>**O:^Vs,:@:ssw771>1=*;O79-j;j-*#-3uj-;>>11:>",
":22&1>*:>>Vww#o@wQ(r771=*;;M.--%;1N+;k-*-;-;1>>>>1",
"*:11:*:::,:::::::11;1>>>=1;;;;;;;;;;;;1k;kj*>>1::>",
"::,::1,2>>::::,:,:,1>>11>>1;;1;39;1;;;-;;;11>=>>11",
"w<<::wsww:,,:,,:,,,>:1>>>1=;1;;;=1=*=%**%==;>>1111",
"w<::wMViwww,,,,,,15,>:>1>>====*=*%%%%%#%%*%=>>>>,1",
"www:wViw,ww,,,:w112,>2:>1>1=%%%$$.$$$$%$%%#==>1>11",
"w<i:wM::,ws,<,:ww1r*>:2>>>>=;%%$$O $@$$%$%$=>>>>=1",
":rV:wrw:::swwwwww1w,:1>21>=;;;=%$$$$%%%%%%%1=>1>,1",
":wVwrw::::D,:::wwww::>>>>>17k;;;=%$%%%%%=%%>:>=1>1",
":ZUi2:ooLQ::::Mrys:::,::7>21k;===**>=>>=====,1::::",
"LLwe2:o:f::::>s5ww:::::w,:>1>;;=*:*>>>>,**:,:>:,1:",
"QZ&:wO@V>:::@:z5>>:>>>==:>>>::::**:,,,,,:*:::1*1::",
"V:::@O:M>@:::>r7>>>>>>>=>1>::5,:,,,1111,1,1:::,::1",
">:::o*>1>>&>>>>>>>>>>>==>>7::::52,,12111111,1::,:,",
">:::O:V:>>&>>>>>>>=>>>=k>7>:::,:1w1w11w1111:1:>,,>",
"15::*:e5>>>>k==k>&>=====>>>**:::ww<wwwww,,w,>,::,,",
":*::>::s>&I>k=$k>&k==kk=>>>*:::,,wwyywywww1,:,1::*",
":,::::::&>k===$$$XX $$$$kk#O:ss<,wwwwwy,,ww,1:1:**",
"::1:::::===$$$$$$$$ $%.$==O:VLw:sVyywwwwyww,,1:::1",
"1:,:::*:*:,....XX%X$-$XXX%X;DF<,<s<<<www:<<::::w11",
":1*1,:,::**...XXX.XX$$X.X$-9,wVs,::w<<w<:<,::::w19",
":1,:*,*,**:%$$XX....XX+.X;;a,<hD:::,<:<:w,,,:::w7a",
":::1,*,,:::-;-%%O...XX-X.;NNhiwfy<<<<:<<,<,,w1wwc9",
"1:,,-*,#***k;;;;-*%;$**$.-JN9,2hVs<<,<<,<,,<sww599",
",:,,*,--*--;7;;9kqq;;;;@.;J9+#DW<:<<<:,:,,,hiVi53,",
"1yw,,,----*1;;;;=;=;;;22;;;.#bW/~JVJVG<:,fFyafrsyy",
"*OO,,,-,-,;13;;;===;11>>-;;-,9NJLLL<,::#<f<2,,,wyy",
"---9;<<3,,,3,1;=:::*>r2>1;;--###-<9<,+.<ED,,,,,<<-",
"-9u99<39999,,1,>w::1w>:w,3lul--#-,<yy++hW<,<<<<,--",
"9y<uy99<999,,1,1:::w::w:,1,bll;---,,,+-hf<<PNh<<--",
"u9uu9<9299<,w,,,:<::rwww,293l;l---#++-N/DS)PPhy<--",
"NNN9<;<<w<,,,,,,::<<:<,,2wwfc99l--;#+<P///)ufy33<-",
"9<<<<<;<,,<wwy,<<::<w<<<w,,9j-#*----O-FFPW9,-<--;-",
"O9uy<<,,i<,<:,<:<<:LMVD,#f/3j1kk;3-----+-++-;--3<-",
"-uNBy<,,,#<V<w<wsQLH::,,2yy13;11;-;;-------<;3;-;;",
"9uJN-y<-<-<##9JJY^M#O@V_^D,=1;;;;--;j-9----;;3;<;-",
"9Nf+-99<N9f O3RBMa##@c_QM:@11;;;;;-3-,3-<---;-;,;;"
};
