/* XPM */
static char *db9a56d033e1499eccfd5c5f1b446112IVmM2N0W4pFadUAz[] = {
/* columns rows colors chars-per-pixel */
"50 50 147 2 ",
"   c None",
".  c #000001",
"X  c #080604",
"o  c #0A0906",
"O  c #010309",
"+  c #02090B",
"@  c #0A0A0A",
"#  c #000213",
"$  c #040A13",
"%  c #00031C",
"&  c #030F19",
"*  c #0F1114",
"=  c #04121C",
"-  c #0F161D",
";  c #121212",
":  c #181717",
">  c #181817",
",  c #121619",
"<  c #13191E",
"1  c #1E1E1E",
"2  c #000424",
"3  c #00052B",
"4  c #060B2D",
"5  c #051623",
"6  c #051828",
"7  c #121C24",
"8  c #000634",
"9  c #00073A",
"0  c #020B3C",
"q  c #071E30",
"w  c #072032",
"e  c #082336",
"r  c #09263C",
"t  c #09283F",
"y  c #212121",
"u  c #343434",
"i  c #383634",
"p  c #3A3837",
"a  c #3A3A3A",
"s  c #000846",
"d  c #00094D",
"f  c #000A53",
"g  c #000B5C",
"h  c #031555",
"j  c #041857",
"k  c #03145C",
"l  c #04195A",
"z  c #092943",
"x  c #0A2E4A",
"c  c #0B3352",
"v  c #0B355A",
"b  c #0D395D",
"n  c #103B5D",
"m  c #223748",
"M  c #263B4B",
"N  c #000C64",
"B  c #000C6A",
"V  c #000D73",
"C  c #000F7C",
"Z  c #0D3B61",
"A  c #0E3F6A",
"S  c #113F63",
"D  c #0E4169",
"F  c #114167",
"G  c #0F4674",
"H  c #0E447B",
"J  c #104773",
"K  c #104876",
"L  c #104B7A",
"P  c #414141",
"I  c #4C4C4C",
"U  c #545454",
"Y  c #5A5B5B",
"T  c #666666",
"R  c #666869",
"E  c #6A6A6A",
"W  c #737373",
"Q  c #797979",
"!  c #000F82",
"~  c #001087",
"^  c #00108B",
"/  c #001295",
"(  c #00129B",
")  c #0F4880",
"_  c #114F80",
"`  c #12528C",
"'  c #13588F",
"]  c #145C95",
"[  c #165F99",
"{  c #15619E",
"}  c #1663A0",
"|  c #1665A4",
" . c #1666A6",
".. c #1665A3",
"X. c #1769AA",
"o. c #186FB4",
"O. c #186EB2",
"+. c #1971B6",
"@. c #1971B7",
"#. c #1970B5",
"$. c #1A74BC",
"%. c #1A77C1",
"&. c #1B7BC7",
"*. c #1A78C3",
"=. c #1C7FCE",
"-. c #1C7ECB",
";. c #1D85D7",
":. c #1D82D3",
">. c #1E86D9",
",. c #1D87DA",
"<. c #1E88DD",
"1. c #1E8AE0",
"2. c #1F8BE1",
"3. c #1F8CE3",
"4. c #1F8EE6",
"5. c #1F8DE4",
"6. c #2090E9",
"7. c #2092ED",
"8. c #2093ED",
"9. c #2093EE",
"0. c #2094EF",
"q. c #2093EE",
"w. c #2194F0",
"e. c #2195F1",
"r. c #2196F3",
"t. c #2196F4",
"y. c #2197F4",
"u. c #2196F3",
"i. c #2198F6",
"p. c #2198F7",
"a. c #2298F7",
"s. c #2299F7",
"d. c #2198F6",
"f. c #2299F8",
"g. c #229AFA",
"h. c #229BFB",
"j. c #229BFA",
"k. c #808080",
"l. c #818181",
"z. c gray51",
"x. c #838383",
"c. c #848484",
"v. c #828282",
"b. c #C0C0C0",
"n. c #C3C3C3",
"m. c gray78",
"M. c #C6C6C6",
/* pixels */
"                                      . . . . . . . . . . . .                                       ",
"                                      @ o o X @ o o o o X @ @                                       ",
"                            . . . . . 1 1 1 1 1 7 1 1 1 1 1 > X . . . .                             ",
"                      . . . . X ; @ ; 1 1 1 y 1 y 1 1 1 y 7 1 ; @ * o . .   .                       ",
"                    O O O O O * 1 1 y 1 1 1 1 1 y 1 y 1 1 1 1 y 1 y ; O + O O O                     ",
"                  . L +.#.#.+.S X > y y 1 y y 1 1 1 1 1 1 y 1 1 > o n +.#.#.+._ .                   ",
"                  . ] j.y.s.j.[ 5 < 1 7 1 1 1 1 1 1 1 y 1 1 y > < = ' s.y.s.h.{ . .                 ",
"              . . . ] j.r.y.r.6.>.z X > 1 y y 1 1 y 1 1 y 1 1 X t ;.6.r.r.r.h.{ . . .               ",
"              @ @ @ S | 3.t.r.t.w.x . > y 1 y 1 1 1 1 1 1 1 1 . t 9.r.r.t.4.| F @ @ @               ",
"          . X 1 1 y @ $ &.t.t.t.w.x . 1 1 1 1 1 1 y y 1 y 1 1 X z 9.r.t.s.=.& @ y 7 1 X .           ",
"        . ; : 1 1 1 : , c S Z Z n = . 1 1 y y 1 1 1 1 1 1 1 1 . & n Z b Z c , : y y 1 : ; .         ",
"      . . : 1 y 1 1 1 1 X . . . . . X 1 1 1 1 1 y 1 y 1 1 1 1 X . . . . . X 1 1 1 1 1 1 : . .       ",
"      . . : y 7 1 y y 1 > > > > 1 : 1 1 1 y 1 1 1 1 1 1 1 1 1 1 1 : > 1 : 1 1 1 1 1 1 y > . .       ",
"      . . ; : 1 1 1 1 1 y y y 1 1 1 1 1 1 1 1 y 1 1 1 1 1 1 1 1 1 1 1 1 1 1 1 1 y 1 y > ; . .       ",
"    . . . . X 1 y 1 1 1 1 1 1 1 1 1 1 1 1 1 1 1 1 y 1 1 1 1 1 1 y 1 y 1 1 1 1 1 1 1 1 X . . . .     ",
"    . 2 s s 0 * ; ; > y 1 y y 1 y 1 1 1 : ; ; ; ; ; ; ; ; 1 y 1 1 1 1 1 1 1 1 1 ; ; ; 0 s s 2 .     ",
"    . d ( ( ! O . . ; 1 1 y y y 1 y 1 1 : . . . . . X . . : y 1 1 1 y 1 y 1 1 : . . O ! ( ( g .     ",
"    . d ( ( / V B B 4 o o @ 1 7 1 1 1 @ y Y Y Y Y Y U Y Y y o 1 1 1 1 1 @ o o 4 N B B / ( ( f .     ",
"    # f ( ( ( ( ( ( s # # @ > 1 1 1 1 @ u Q x.c.l.l.x.x.l.p @ > 1 1 1 > $ # # s ( ( ( ( / ( g #     ",
". 3 ^ / ( ( ( ( ( ( / ^ ^ B O ; 1 X ; T Q l.l.c.l.x.l.l.k.Q T , @ 1 ; O B ^ ~ / ( ( ( ( ( ( / ^ 3 . ",
". % N B B B B B B B B B B f . @ : y u W l.l.E U U Y U E k.l.Q u y : @ . f B B B B B B B B B B B 2 . ",
". . . . . . . . . . . . . . . . . U l.l.l.l.a . . . . u l.l.l.l.Y . . . . . . . . . . . . . . . . . ",
". . . . . . . . . . . . . . . y I E x.l.E a U E E E E U a T l.l.W I y . . . . . . . . . . . . . . . ",
". . . . . . . . . . . . . . . a x.l.l.x.U . E m.n.n.M.W . U l.k.l.c.P . . . . . . . . . . . . . . . ",
". . . . . . . . . . . . . . . a l.k.l.l.Y . E n.b.b.n.W . U l.Q k.l.P . . . . . . . . . . . . . . . ",
". . . . . . . . . . . . . . . a l.l.l.l.U . E n.b.b.b.W . U c.l.l.l.P . . . . . . . . . . . . . . . ",
". . . . . . . . . . . . . . . a c.l.l.l.U . E m.n.b.m.W . U l.l.l.x.P . . . . . . . . . . . . . . . ",
". . . . . . . . . . . . . . . y I W l.l.E u U W W W W Y u T l.l.W U y . . . . . . . . . . . . . . . ",
". . . . . . . . . . . . . . . . . Y l.l.k.l.a . . . . u l.k.k.l.Y X . . . . . . . . . . . . . . . . ",
". % N N g % . . e } } { { { { { { M p W l.k.T U U U U T k.l.Q p M [ { { } { } { { z . . # N N N % . ",
". 3 ^ / / 8 O O v 1.q.s.s.s.s.s.s.v - R Q k.l.l.l.l.x.l.k.Q E < c 0.s.g.p.g.p.w.3.Z O O 3 / / ^ 3 . ",
"    # g ( ^ ! ! k 5 ..g.s.s.r.r.r.>.+.7 u l.c.l.l.l.l.l.l.p < O.>.r.r.t.p.t.g.X.5 k ! ! ~ ( g %     ",
"    . d ( ( ( ( V 2 H +.O.%.0.r.u.y.1.c m Y Y T Y Y T Y Y M c >.s.r.r.r.*.O.+.L 2 B ( ( ( ( f .     ",
"    . d ( ( ( / ( / 0 . . r 6.s.u.u.u.u...O . . . X . . . { 0.r.r.r.r.0.x . . 0 / ( ( / ( ( f .     ",
"    . d ( ( ( ( ( ( B d d j G O.y.u.u.y.:.L L L L K L L L &.r.r.r.t.+.K l d d B ( ( / ( ( ( f .     ",
"    . d / ( / ( / / / ( ( V . D q.u.u.u.0.y.s.s.s.s.s.s.s.r.r.r.r.0.J . B ( / / / / ( ( ( / f .     ",
"      2 3 C ( ( B 3 2 3 2 % . = z $.i.u.r.r.r.r.r.r.r.r.r.r.r.s.%.z = . % 2 3 2 3 B ( ( C 8 2       ",
"        . B ( ( B # O . = 5 5 5 5 O.i.u.r.r.r.r.r.r.r.r.r.r.r.s.$.6 5 5 5 = . O # N ( ( V . .       ",
"      . O V ( ( / ^ 8 + @.3.<.<.<.q.r.r.r.r.r.r.r.r.r.r.r.r.r.r.9.<.<.<.3.$.$ 3 ^ / ( ( C O .       ",
"        . f B ( ( ( g 0 ` o.w.t.t.r.r.r.r.r.r.r.r.r.r.r.r.r.r.r.r.r.t.r.+.` 0 g ( ( / B f .         ",
"          . % ^ ( ( ( ^ % r 6.r.r.r.r.r.r.r.r.r.r.r.r.r.r.r.r.r.r.r.r.9.z # ^ ( ( ( / % .           ",
"            # 9 g ( ( / N k b ..s.r.r.r.r.r.r.r.r.r.r.r.r.r.r.r.r.t.X.b l N / ( / N 9 #             ",
"              . 8 ^ / ( ( C O A 5.q.r.r.r.r.r.r.r.r.r.r.r.r.r.r.9.5.G O V ( ( / ^ 9 .               ",
"                  % B ( ( / ! h q +.s.r.r.r.r.r.r.r.r.r.r.r.r.s.%.q h ! / ( ( B % %                 ",
"                  . d C V ! ( f . X.s.r.r.r.r.r.r.r.r.r.r.r.r.s.O.. f ( ~ V C f .                   ",
"                    . O . 3 ( f . X.j.r.r.r.r.r.r.r.r.r.r.r.r.g.o.. d ( 3 . . O                     ",
"                      . . % f 3 . b ] 5.t.r.r.r.r.r.r.r.r.r.4.[ Z . 3 f 2 . .                       ",
"                            . . . . = :.r.0.0.0.0.0.0.q.9.r.>.5 . . . .                             ",
"                                      x x x x x x x x x x x x                                       ",
"                                      . . . . . . . . . . . .                                       "
};
